<?xml version="1.0" encoding="UTF-8" standalone="no"?>
<!-- Created with Inkscape (http://www.inkscape.org/) -->

<svg
   xmlns:dc="http://purl.org/dc/elements/1.1/"
   xmlns:cc="http://creativecommons.org/ns#"
   xmlns:rdf="http://www.w3.org/1999/02/22-rdf-syntax-ns#"
   xmlns:svg="http://www.w3.org/2000/svg"
   xmlns="http://www.w3.org/2000/svg"
   xmlns:sodipodi="http://sodipodi.sourceforge.net/DTD/sodipodi-0.dtd"
   xmlns:inkscape="http://www.inkscape.org/namespaces/inkscape"
   width="744.09448819"
   height="1052.3622047"
   id="svg2"
   version="1.1"
   inkscape:version="0.48.2 r9819"
   sodipodi:docname="logo.svg">
  <defs
     id="defs4" />
  <sodipodi:namedview
     id="base"
     pagecolor="#ffffff"
     bordercolor="#666666"
     borderopacity="1.0"
     inkscape:pageopacity="0.0"
     inkscape:pageshadow="2"
     inkscape:zoom="1"
     inkscape:cx="357.14104"
     inkscape:cy="520.1055"
     inkscape:document-units="px"
     inkscape:current-layer="layer1"
     showgrid="false"
     inkscape:window-width="1920"
     inkscape:window-height="1018"
     inkscape:window-x="-8"
     inkscape:window-y="32"
     inkscape:window-maximized="1" />
  <metadata
     id="metadata7">
    <rdf:RDF>
      <cc:Work
         rdf:about="">
        <dc:format>image/svg+xml</dc:format>
        <dc:type
           rdf:resource="http://purl.org/dc/dcmitype/StillImage" />
        <dc:title></dc:title>
      </cc:Work>
    </rdf:RDF>
  </metadata>
  <g
     inkscape:label="Layer 1"
     inkscape:groupmode="layer"
     id="layer1">
    <rect
       style="color:#000000;fill:#ffffff;fill-opacity:1;fill-rule:nonzero;stroke:#ffffff;stroke-width:3;stroke-linecap:butt;stroke-linejoin:miter;stroke-miterlimit:4;stroke-opacity:1;stroke-dasharray:none;stroke-dashoffset:0;marker:none;visibility:visible;display:inline;overflow:visible;enable-background:accumulate"
       id="rect4151"
       width="501"
       height="235"
       x="130"
       y="198.36218"
       inkscape:export-filename="C:\dev\webrepl\gfx\webrepl_logo.png"
       inkscape:export-xdpi="90"
       inkscape:export-ydpi="90" />
    <path
       style="fill:#ff2a2a;stroke:#ff2a2a;stroke-width:3;stroke-linecap:butt;stroke-linejoin:miter;stroke-miterlimit:4;stroke-opacity:1;stroke-dasharray:none"
       d="m 359.56362,273.3785 c -0.3506,-0.1753 -1.2271,-0.1753 -1.0518,-0.5259 0.1753,-0.3506 1.0518,0.91788 1.0518,0.5259 0,-0.63205 -0.7951,-1.00012 -1.0518,-1.5777 -0.1068,-0.24029 0,-0.5259 0,-0.78885 0,-0.3506 0,-0.7012 0,-1.0518 0,-0.0877 0,-0.35061 0,-0.26296 0,0.81791 0.11792,1.6048 -0.26295,2.36656 -0.0885,0.177 -10.61177,-1.20467 -10.67737,-0.87669 -0.0516,0.25785 9.95231,2.72519 9.88851,2.98029 -0.0601,0.24051 -0.41503,0.30416 -0.5259,0.5259 -0.04,0.08 0,0.67043 0,0.78885 0,0.61356 0,1.22711 0,1.84066 0,0.8765 0,1.753 0,2.6295 0,0.0876 0,0.3506 0,0.26295 0,-0.1753 0,-0.3506 0,-0.5259 0,-0.43825 -0.072,-0.88246 0,-1.31475 0.0456,-0.2734 0.1753,-0.5259 0.26295,-0.78885 0.1753,-0.5259 0.33646,-1.05673 0.52591,-1.5777 0.1613,-0.4436 0.25522,-0.92807 0.5259,-1.31476 0.35542,-0.50774 1.13666,-0.72111 1.31475,-1.31475 0.13563,-0.4521 -0.96415,-1.13945 -0.5259,-1.31475 0.43825,-0.1753 -6.99606,-3.45231 -6.99606,-2.9803 0,0.55435 7.09522,5.32735 6.99606,5.87275 -0.0784,0.43119 -15.34426,4.61889 -15.67342,4.90823 -0.44434,0.39057 5.51128,-2.13149 15.67342,-0.96397 0.26123,0.03 0,0.5259 0,0.78885 0,0.0876 -0.0876,0.26295 0,0.26295 0.47663,0 14.15373,2.05614 14.45399,1.85597 0.16307,-0.10872 -13.32517,-2.58284 -13.13924,-2.64482 0.1663,-0.0554 0.40194,0.12396 0.5259,0 0.062,-0.062 -0.0876,-0.26295 0,-0.26295 0.0876,0 0,0.1753 0,0.26295 0,0.26295 0,0.5259 0,0.78885 0,0.43825 0,0.8765 0,1.31475 0,0.0876 0.0392,0.18456 0,0.26295 -0.0554,0.11087 19.21744,-9.59423 19.17824,1.95544 -0.25602,-9.25335 -19.07154,-4.08494 -18.91529,-4.58494 1.97363,-5.92088 -0.19392,0.69599 1.31475,-4.20721 0.24454,-0.79475 0.58718,-1.55986 0.78885,-2.36655 0.0213,-0.085 0,-0.3506 0,-0.26295 0,0.26295 0.0832,0.53939 0,0.78885 -0.31841,0.95526 -0.57307,0.59666 -1.0518,1.31475 -0.0486,0.0729 0.0486,0.19002 0,0.26295 -0.13751,0.20628 -0.46577,0.28539 -0.5259,0.5259 -0.14024,0.56096 0.57849,0.57849 0.78885,0.78885 0.062,0.062 -0.062,0.20098 0,0.26296 0.062,0.062 0.20098,-0.062 0.26295,0 0.062,0.062 -0.062,0.20097 0,0.26295 0.062,0.062 16.24862,-11.4332 16.28781,-11.3548 0.0784,0.15679 -16.02486,11.7054 -16.02486,11.8807 0,0.26295 0,0.5259 0,0.78885 0,0.8765 17.0678,-7.3347 17.0678,-6.4582"
       id="path3331-5"
       inkscape:connector-curvature="0"
       sodipodi:nodetypes="csscssssccsssssscscsssscssssccssssscccscscscssccccssc" />
    <path
       style="fill:#ff2a2a;stroke:#ff2a2a;stroke-width:3;stroke-linecap:butt;stroke-linejoin:miter;stroke-miterlimit:4;stroke-opacity:1;stroke-dasharray:none"
       d="m 508.26836,296.18585 c -0.3506,-0.1753 -1.2271,-0.1753 -1.0518,-0.5259 0.1753,-0.3506 1.0518,0.91788 1.0518,0.5259 0,-0.63205 -0.7951,-1.00012 -1.0518,-1.5777 -0.1068,-0.24029 0,-0.5259 0,-0.78885 0,-0.3506 0,-0.7012 0,-1.0518 0,-0.0877 0,-0.35061 0,-0.26296 0,0.81791 0.11792,1.6048 -0.26295,2.36656 -0.0885,0.177 7.9743,-24.95057 7.9087,-24.62259 -0.0516,0.25785 -8.63376,26.47109 -8.69756,26.72619 -0.0601,0.24051 -0.41503,0.30416 -0.5259,0.5259 -0.04,0.08 0,0.67043 0,0.78885 0,0.61356 0,1.22711 0,1.84066 0,0.8765 0,1.753 0,2.6295 0,0.0876 0,0.3506 0,0.26295 0,-0.1753 0,-0.3506 0,-0.5259 0,-0.43825 -0.072,-0.88246 0,-1.31475 0.0456,-0.2734 0.1753,-0.5259 0.26295,-0.78885 0.1753,-0.5259 0.33646,-1.05673 0.52591,-1.5777 0.1613,-0.4436 0.25522,-0.92807 0.5259,-1.31476 0.35542,-0.50774 1.13666,-0.72111 1.31475,-1.31475 0.13563,-0.4521 -0.96415,-1.13945 -0.5259,-1.31475 0.43825,-0.1753 17.11869,-26.61624 17.11869,-26.14423 0,0.55435 -17.01953,28.49128 -17.11869,29.03668 -0.0784,0.43119 -1.41393,13.75414 -1.74309,14.04348 -0.44434,0.39057 -8.41905,-11.26674 1.74309,-10.09922 0.26123,0.03 0,0.5259 0,0.78885 0,0.0876 -0.0876,0.26295 0,0.26295 0.47663,0 7.3253,48.58305 7.62556,48.38288 0.16307,-0.10872 -6.49674,-49.10975 -6.31081,-49.17173 0.1663,-0.0554 0.40194,0.12396 0.5259,0 0.062,-0.062 -0.0876,-0.26295 0,-0.26295 0.0876,0 0,0.1753 0,0.26295 0,0.26295 0,0.5259 0,0.78885 0,0.43825 0,0.8765 0,1.31475 0,0.0876 0.0392,0.18456 0,0.26295 -0.0554,0.11087 13.44967,47.18573 13.41047,47.06814 -0.0451,-0.13545 47.7191,0.14114 45.08012,-0.25486 -7.2287,-1.08471 -1.26221,-10.86487 -7.2037,-10.44279 -51.82495,3.68169 -51.13509,-38.64431 -51.02394,-38.99999 1.97363,-5.92088 -0.19392,0.69599 1.31475,-4.20721 0.24454,-0.79475 0.58718,-1.55986 0.78885,-2.36655 0.0213,-0.085 0,-0.3506 0,-0.26295 0,0.26295 0.0832,0.53939 0,0.78885 -0.31841,0.95526 -0.57307,0.59666 -1.0518,1.31475 -0.0486,0.0729 0.0486,0.19002 0,0.26295 -0.13751,0.20628 -0.46577,0.28539 -0.5259,0.5259 -0.14024,0.56096 0.57849,0.57849 0.78885,0.78885 0.062,0.062 -0.062,0.20098 0,0.26296 0.062,0.062 0.20098,-0.062 0.26295,0 0.062,0.062 -0.062,0.20097 0,0.26295 0.062,0.062 20.7339,-9.80757 20.77309,-9.72917 0.0784,0.15679 -20.51014,10.07977 -20.51014,10.25507 0,0.26295 0,0.5259 0,0.78885 0,0.41705 20.25076,8.48539 33.18365,5.4301 2.64267,-0.62431 10.22667,-5.81226 7.38447,-4.59069 -10.68951,4.59434 -16.67678,-3.71143 -17.95438,-4.25777"
       id="path3331-9"
       inkscape:connector-curvature="0"
       sodipodi:nodetypes="csscssssccsssssscscsssscssssccsssssccsscscscscssccccssssc" />
    <path
       style="fill:#ff2a2a;stroke:#ff2a2a;stroke-width:3;stroke-linecap:butt;stroke-linejoin:miter;stroke-miterlimit:4;stroke-opacity:1;stroke-dasharray:none"
       d="m 258.49377,298.76782 c -0.3506,-0.1753 -1.2271,-0.1753 -1.0518,-0.5259 0.1753,-0.3506 1.0518,0.91788 1.0518,0.5259 0,-0.63205 -0.7951,-1.00012 -1.0518,-1.5777 -0.1068,-0.24029 0,-0.5259 0,-0.78885 0,-0.3506 0,-0.7012 0,-1.0518 0,-0.0877 0,-0.35061 0,-0.26296 0,0.81791 0.11792,1.6048 -0.26295,2.36656 -0.0885,0.177 12.33905,-15.6391 12.27345,-15.31112 -0.0516,0.25785 14.64493,9.30306 -13.06231,17.41472 -0.0601,0.24051 -0.41503,0.30416 -0.5259,0.5259 -0.04,0.08 0,0.67043 0,0.78885 0,0.61356 0,1.22711 0,1.84066 0,0.8765 0,1.753 0,2.6295 0,0.0876 0,0.3506 0,0.26295 0,-0.1753 -42.08197,21.21907 -42.08197,21.04377 0,-0.43825 42.00997,-22.45213 42.08197,-22.88442 0.0456,-0.2734 0.1753,-0.5259 0.26295,-0.78885 0.1753,-0.5259 0.33646,-1.05673 0.52591,-1.5777 0.1613,-0.4436 0.25522,-0.92807 0.5259,-1.31476 0.35542,-0.50774 1.13666,-0.72111 1.31475,-1.31475 0.13563,-0.4521 -0.96415,-1.13945 -0.5259,-1.31475 0.43825,-0.1753 16.93837,-18.14083 16.93837,-17.66882 0,0.55435 -8.83921,24.51587 -16.93837,20.56127 7.9216,4.43119 -54.26229,26.5943 -54.59145,26.88364 -0.44434,0.39057 44.42931,-24.1069 54.59145,-22.93938 0.26123,0.03 0,0.5259 0,0.78885 0,0.0876 -0.0876,0.26295 0,0.26295 0.47663,0 -3.03945,23.30436 -2.73919,23.10419 0.16307,-0.10872 3.86801,-23.83106 4.05394,-23.89304 0.1663,-0.0554 0.40194,0.12396 0.5259,0 0.062,-0.062 -0.0876,-0.26295 0,-0.26295 0.0876,0 0,0.1753 0,0.26295 0,0.26295 0,0.5259 0,0.78885 0,0.43825 0,0.8765 0,1.31475 0,0.0876 0.0392,0.18456 0,0.26295 -0.0554,0.11087 12.39639,16.37835 12.35719,16.26076 -0.25602,-0.76807 -12.25049,-18.39026 -12.09424,-18.89026 1.97363,-5.92088 6.80608,5.69599 1.31475,-4.20721 -0.40324,-0.72721 0.58718,-1.55986 0.78885,-2.36655 0.0213,-0.085 0,-0.3506 0,-0.26295 0,0.26295 0.0832,0.53939 0,0.78885 -0.31841,0.95526 -0.57307,0.59666 -1.0518,1.31475 -0.0486,0.0729 0.0486,0.19002 0,0.26295 -0.13751,0.20628 -0.46577,0.28539 -0.5259,0.5259 -0.14024,0.56096 0.57849,0.57849 0.78885,0.78885 0.062,0.062 -0.062,0.20098 0,0.26296 0.062,0.062 0.20098,-0.062 0.26295,0 0.062,0.062 17.17161,-34.96706 18.73361,-18.90508 0.062,0.062 -4.49971,-14.13954 -3.96052,7.43886 0.0784,0.15679 -14.51014,12.07977 -14.51014,12.25507 0,0.26295 0,0.5259 0,0.78885 0,0.8765 16.61374,-6.29486 16.61374,-5.41836"
       id="path3331-7"
       inkscape:connector-curvature="0"
       sodipodi:nodetypes="csscssssccsssssscscsssscssssccssssscccscscscssccccssc" />
    <path
       style="fill:#ff2a2a;stroke:#ff2a2a;stroke-width:3;stroke-linecap:butt;stroke-linejoin:miter;stroke-miterlimit:4;stroke-opacity:1;stroke-dasharray:none"
       d="m 411.6618,314.51781 c -0.3506,-0.1753 -1.2271,-0.1753 -1.0518,-0.5259 0.1753,-0.3506 1.0518,0.91788 1.0518,0.5259 0,-0.63205 -0.7951,-1.00012 -1.0518,-1.5777 -0.1068,-0.24029 0,-0.5259 0,-0.78885 0,-0.3506 0,-0.7012 0,-1.0518 0,-0.0877 0,-0.35061 0,-0.26296 0,0.81791 0.11792,1.6048 -0.26295,2.36656 -0.0885,0.177 -8.61177,-23.20467 -8.67737,-22.87669 -0.0516,0.25785 7.95231,24.72519 7.88851,24.98029 -0.0601,0.24051 -0.41503,0.30416 -0.5259,0.5259 -0.04,0.08 0,0.67043 0,0.78885 0,0.61356 0,1.22711 0,1.84066 0,0.8765 0,1.753 0,2.6295 0,0.0876 0,0.3506 0,0.26295 0,-0.1753 0,-0.3506 0,-0.5259 0,-0.43825 -0.072,-0.88246 0,-1.31475 0.0456,-0.2734 0.1753,-0.5259 0.26295,-0.78885 0.1753,-0.5259 -13.33977,13.20147 -13.15032,12.6805 0.1613,-0.4436 -16.62183,-38.46496 14.20213,-15.57296 0.49757,0.36953 1.13666,-0.72111 1.31475,-1.31475 0.13563,-0.4521 -0.96415,-1.13945 -0.5259,-1.31475 0.43825,-0.1753 -2.95917,-20.50559 -2.95917,-20.03358 0,0.55435 16.44358,22.08965 16.34442,22.63505 -0.0784,0.43119 -32.84017,-27.85652 -33.16933,-27.56718 -0.44434,0.39057 9.62194,30.6349 19.78408,31.80242 0.26123,0.03 0,0.5259 0,0.78885 0,0.0876 -2.99744,47.98426 -2.90984,47.98426 0.47663,0 1.50563,-9.90465 10.5354,0.66157 0.16307,-0.10872 -6.49674,-49.10975 -6.31081,-49.17173 0.1663,-0.0554 0.40194,0.12396 0.5259,0 0.062,-0.062 -0.0876,-0.26295 0,-0.26295 0.0876,0 0,0.1753 0,0.26295 0,0.26295 0,0.5259 0,0.78885 0,0.43825 0,0.8765 0,1.31475 0,0.0876 0.0392,0.18456 0,0.26295 -0.0554,0.11087 11.99475,33.21852 11.95555,33.10093 -0.25602,-0.76807 0.37246,-34.93945 -11.6926,-35.73043 1.97363,-5.92088 -0.19392,0.69599 1.31475,-4.20721 0.24454,-0.79475 0.58718,-1.55986 0.78885,-2.36655 0.0213,-0.085 0,-0.3506 0,-0.26295 0,0.26295 0.0832,0.53939 0,0.78885 -0.31841,0.95526 -0.57307,0.59666 -1.0518,1.31475 -0.0486,0.0729 0.0486,0.19002 0,0.26295 -0.13751,0.20628 -0.46577,0.28539 -0.5259,0.5259 -0.14024,0.56096 0.57849,0.57849 0.78885,0.78885 0.062,0.062 -0.062,0.20098 0,0.26296 0.062,0.062 0.20098,-0.062 0.26295,0 0.062,0.062 -0.062,0.20097 0,0.26295 0.062,0.062 3.27488,-14.46331 3.31407,-14.38491 0.0784,0.15679 -3.05112,14.73551 -3.05112,14.91081 0,0.26295 0,0.5259 0,0.78885 0,0.8765 22.61374,-4.29486 22.61374,-3.41836"
       id="path3331-2"
       inkscape:connector-curvature="0"
       sodipodi:nodetypes="csscssssccsssssscscsssscssssccssssscccscscscssccccssc" />
    <path
       style="fill:#ff2a2a;stroke:#ff2a2a;stroke-width:3;stroke-linecap:butt;stroke-linejoin:miter;stroke-miterlimit:4;stroke-opacity:1;stroke-dasharray:none"
       d="m 296.87106,286.65047 c -0.3506,-0.1753 -1.2271,-0.1753 -1.0518,-0.5259 0.1753,-0.3506 1.0518,0.91788 1.0518,0.5259 0,-0.63205 -0.7951,-1.00012 -1.0518,-1.5777 -0.1068,-0.24029 0,-0.5259 0,-0.78885 0,-0.3506 0,-0.7012 0,-1.0518 0,-0.0877 0,-0.35061 0,-0.26296 0,0.81791 0.11792,1.6048 -0.26295,2.36656 -0.0885,0.177 -8.61177,-23.20467 -8.67737,-22.87669 -0.0516,0.25785 7.95231,24.72519 7.88851,24.98029 -0.0601,0.24051 -0.41503,0.30416 -0.5259,0.5259 -0.04,0.08 0,0.67043 0,0.78885 0,0.61356 0,1.22711 0,1.84066 0,0.8765 0,1.753 0,2.6295 0,0.0876 0,0.3506 0,0.26295 0,-0.1753 0,-0.3506 0,-0.5259 0,-0.43825 -0.072,-0.88246 0,-1.31475 0.0456,-0.2734 0.1753,-0.5259 0.26295,-0.78885 0.1753,-0.5259 0.33646,-1.05673 0.52591,-1.5777 0.1613,-0.4436 0.25522,-0.92807 0.5259,-1.31476 0.35542,-0.50774 1.13666,-0.72111 1.31475,-1.31475 0.13563,-0.4521 -0.96415,-1.13945 -0.5259,-1.31475 0.43825,-0.1753 -4.99606,-25.45231 -4.99606,-24.9803 0,0.55435 5.09522,27.32735 4.99606,27.87275 -0.0784,0.43119 -13.34426,-17.38111 -13.67342,-17.09177 -0.44434,0.39057 3.51128,19.86851 13.67342,21.03603 0.26123,0.03 0,0.5259 0,0.78885 0,0.0876 -0.0876,0.26295 0,0.26295 0.47663,0 7.3253,48.58305 7.62556,48.38288 0.16307,-0.10872 -6.49674,-49.10975 -6.31081,-49.17173 0.1663,-0.0554 0.40194,0.12396 0.5259,0 0.062,-0.062 -0.0876,-0.26295 0,-0.26295 0.0876,0 0,0.1753 0,0.26295 0,0.26295 0,0.5259 0,0.78885 0,0.43825 0,0.8765 0,1.31475 0,0.0876 0.0392,0.18456 0,0.26295 -0.0554,0.11087 13.44967,47.18573 13.41047,47.06814 -0.25602,-0.76807 -13.30377,-49.19764 -13.14752,-49.69764 1.97363,-5.92088 -0.19392,0.69599 1.31475,-4.20721 0.24454,-0.79475 0.58718,-1.55986 0.78885,-2.36655 0.0213,-0.085 0,-0.3506 0,-0.26295 0,0.26295 0.0832,0.53939 0,0.78885 -0.31841,0.95526 -0.57307,0.59666 -1.0518,1.31475 -0.0486,0.0729 0.0486,0.19002 0,0.26295 -0.13751,0.20628 -0.46577,0.28539 -0.5259,0.5259 -0.14024,0.56096 0.57849,0.57849 0.78885,0.78885 0.062,0.062 -0.062,0.20098 0,0.26296 0.062,0.062 0.20098,-0.062 0.26295,0 0.062,0.062 -0.062,0.20097 0,0.26295 0.062,0.062 20.7339,-9.80757 20.77309,-9.72917 0.0784,0.15679 -20.51014,10.07977 -20.51014,10.25507 0,0.26295 0,0.5259 0,0.78885 0,0.8765 22.61374,-4.29486 22.61374,-3.41836"
       id="path3331"
       inkscape:connector-curvature="0"
       sodipodi:nodetypes="csscssssccsssssscscsssscssssccssssscccscscscssccccssc" />
    <text
       xml:space="preserve"
       style="font-size:32px;font-style:normal;font-variant:normal;font-weight:normal;font-stretch:normal;text-align:start;line-height:125%;letter-spacing:0px;word-spacing:0px;writing-mode:lr-tb;text-anchor:start;fill:#1a1a1a;fill-opacity:1;stroke:none;font-family:Shermlock;-inkscape-font-specification:Shermlock"
       x="185.03448"
       y="409.50217"
       id="text2985-1-4-9-8-2-2-8"
       sodipodi:linespacing="125%"><tspan
         sodipodi:role="line"
         id="tspan3225-3-9"
         x="185.03448"
         y="409.50217">a Generic Terminal for the Web</tspan></text>
    <text
       xml:space="preserve"
       style="font-size:144px;font-style:normal;font-variant:normal;font-weight:normal;font-stretch:normal;text-align:start;line-height:125%;letter-spacing:0px;word-spacing:0px;writing-mode:lr-tb;text-anchor:start;fill:#000000;fill-opacity:1;stroke:none;font-family:EpoXY histoRy;-inkscape-font-specification:EpoXY histoRy"
       x="179.95441"
       y="356.84824"
       id="text2985-1-4-9-8-2-5-1-1-2"
       sodipodi:linespacing="125%"><tspan
         sodipodi:role="line"
         id="tspan3209-2"
         x="179.95441"
         y="356.84824">REPL</tspan></text>
    <text
       xml:space="preserve"
       style="font-size:70.54443359px;font-style:normal;font-variant:normal;font-weight:normal;font-stretch:normal;text-align:start;line-height:125%;letter-spacing:0px;word-spacing:0px;writing-mode:lr-tb;text-anchor:start;fill:#333333;fill-opacity:1;stroke:none;font-family:SketchFlow Print;-inkscape-font-specification:SketchFlow Print"
       x="106.43219"
       y="298.40561"
       id="text2985-1-4-9-6"
       sodipodi:linespacing="125%"
       transform="matrix(0.95063514,-0.1771499,0.16490923,1.0211976,0,0)"><tspan
         sodipodi:role="line"
         id="tspan3248-1"
         x="106.43219"
         y="298.40561">Web</tspan></text>
    <text
       xml:space="preserve"
       style="font-size:70.54443359px;font-style:normal;font-variant:normal;font-weight:normal;font-stretch:normal;text-align:start;line-height:125%;letter-spacing:0px;word-spacing:0px;writing-mode:lr-tb;text-anchor:start;fill:#ff0000;fill-opacity:1;stroke:none;font-family:SketchFlow Print;-inkscape-font-specification:SketchFlow Print"
       x="104.6369"
       y="295.85675"
       id="text2985-1-4-9"
       sodipodi:linespacing="125%"
       transform="matrix(0.95063514,-0.1771499,0.16490923,1.0211976,0,0)"><tspan
         sodipodi:role="line"
         id="tspan3248"
         x="104.6369"
         y="295.85675">Web</tspan></text>
    <rect
       style="color:#000000;fill:#000000;fill-opacity:1;fill-rule:nonzero;stroke:#000000;stroke-width:3;stroke-linecap:butt;stroke-linejoin:miter;stroke-miterlimit:4;stroke-opacity:1;stroke-dasharray:none;stroke-dashoffset:0;marker:none;visibility:visible;display:inline;overflow:visible;enable-background:accumulate"
       id="rect4151-4"
       width="501"
       height="235"
       x="144.5"
       y="484.86218"
       inkscape:export-filename="C:\dev\webrepl\gfx\webrepl_logo_negative.png"
       inkscape:export-xdpi="90"
       inkscape:export-ydpi="90" />
    <path
       style="fill:#ff2a2a;stroke:#ff2a2a;stroke-width:3;stroke-linecap:butt;stroke-linejoin:miter;stroke-miterlimit:4;stroke-opacity:1;stroke-dasharray:none"
       d="m 374.06362,559.8785 c -0.3506,-0.1753 -1.2271,-0.1753 -1.0518,-0.5259 0.1753,-0.3506 1.0518,0.91788 1.0518,0.5259 0,-0.63205 -0.7951,-1.00012 -1.0518,-1.5777 -0.1068,-0.24029 0,-0.5259 0,-0.78885 0,-0.3506 0,-0.7012 0,-1.0518 0,-0.0877 0,-0.35061 0,-0.26296 0,0.81791 0.11792,1.6048 -0.26295,2.36656 -0.0885,0.177 -10.61177,-1.20467 -10.67737,-0.87669 -0.0516,0.25785 9.95231,2.72519 9.88851,2.98029 -0.0601,0.24051 -0.41503,0.30416 -0.5259,0.5259 -0.04,0.08 0,0.67043 0,0.78885 0,0.61356 0,1.22711 0,1.84066 0,0.8765 0,1.753 0,2.6295 0,0.0876 0,0.3506 0,0.26295 0,-0.1753 0,-0.3506 0,-0.5259 0,-0.43825 -0.072,-0.88246 0,-1.31475 0.0456,-0.2734 0.1753,-0.5259 0.26295,-0.78885 0.1753,-0.5259 0.33646,-1.05673 0.52591,-1.5777 0.1613,-0.4436 0.25522,-0.92807 0.5259,-1.31476 0.35542,-0.50774 1.13666,-0.72111 1.31475,-1.31475 0.13563,-0.4521 -0.96415,-1.13945 -0.5259,-1.31475 0.43825,-0.1753 -6.99606,-3.45231 -6.99606,-2.9803 0,0.55435 7.09522,5.32735 6.99606,5.87275 -0.0784,0.43119 -15.34426,4.61889 -15.67342,4.90823 -0.44434,0.39057 5.51128,-2.13149 15.67342,-0.96397 0.26123,0.03 0,0.5259 0,0.78885 0,0.0876 -0.0876,0.26295 0,0.26295 0.47663,0 14.15373,2.05614 14.45399,1.85597 0.16307,-0.10872 -13.32517,-2.58284 -13.13924,-2.64482 0.1663,-0.0554 0.40194,0.12396 0.5259,0 0.062,-0.062 -0.0876,-0.26295 0,-0.26295 0.0876,0 0,0.1753 0,0.26295 0,0.26295 0,0.5259 0,0.78885 0,0.43825 0,0.8765 0,1.31475 0,0.0876 0.0392,0.18456 0,0.26295 -0.0554,0.11087 19.21744,-9.59423 19.17824,1.95544 -0.25602,-9.25335 -19.07154,-4.08494 -18.91529,-4.58494 1.97363,-5.92088 -0.19392,0.69599 1.31475,-4.20721 0.24454,-0.79475 0.58718,-1.55986 0.78885,-2.36655 0.0213,-0.085 0,-0.3506 0,-0.26295 0,0.26295 0.0832,0.53939 0,0.78885 -0.31841,0.95526 -0.57307,0.59666 -1.0518,1.31475 -0.0486,0.0729 0.0486,0.19002 0,0.26295 -0.13751,0.20628 -0.46577,0.28539 -0.5259,0.5259 -0.14024,0.56096 0.57849,0.57849 0.78885,0.78885 0.062,0.062 -0.062,0.20098 0,0.26296 0.062,0.062 0.20098,-0.062 0.26295,0 0.062,0.062 -0.062,0.20097 0,0.26295 0.062,0.062 16.24862,-11.4332 16.28781,-11.3548 0.0784,0.15679 -16.02486,11.7054 -16.02486,11.8807 0,0.26295 0,0.5259 0,0.78885 0,0.8765 17.0678,-7.3347 17.0678,-6.4582"
       id="path3331-5-3"
       inkscape:connector-curvature="0"
       sodipodi:nodetypes="csscssssccsssssscscsssscssssccssssscccscscscssccccssc" />
    <path
       style="fill:#ff2a2a;stroke:#ff2a2a;stroke-width:3;stroke-linecap:butt;stroke-linejoin:miter;stroke-miterlimit:4;stroke-opacity:1;stroke-dasharray:none"
       d="m 522.76836,582.68585 c -0.3506,-0.1753 -1.2271,-0.1753 -1.0518,-0.5259 0.1753,-0.3506 1.0518,0.91788 1.0518,0.5259 0,-0.63205 -0.7951,-1.00012 -1.0518,-1.5777 -0.1068,-0.24029 0,-0.5259 0,-0.78885 0,-0.3506 0,-0.7012 0,-1.0518 0,-0.0877 0,-0.35061 0,-0.26296 0,0.81791 0.11792,1.6048 -0.26295,2.36656 -0.0885,0.177 7.9743,-24.95057 7.9087,-24.62259 -0.0516,0.25785 -8.63376,26.47109 -8.69756,26.72619 -0.0601,0.24051 -0.41503,0.30416 -0.5259,0.5259 -0.04,0.08 0,0.67043 0,0.78885 0,0.61356 0,1.22711 0,1.84066 0,0.8765 0,1.753 0,2.6295 0,0.0876 0,0.3506 0,0.26295 0,-0.1753 0,-0.3506 0,-0.5259 0,-0.43825 -0.072,-0.88246 0,-1.31475 0.0456,-0.2734 0.1753,-0.5259 0.26295,-0.78885 0.1753,-0.5259 0.33646,-1.05673 0.52591,-1.5777 0.1613,-0.4436 0.25522,-0.92807 0.5259,-1.31476 0.35542,-0.50774 1.13666,-0.72111 1.31475,-1.31475 0.13563,-0.4521 -0.96415,-1.13945 -0.5259,-1.31475 0.43825,-0.1753 17.11869,-26.61624 17.11869,-26.14423 0,0.55435 -17.01953,28.49128 -17.11869,29.03668 -0.0784,0.43119 -1.41393,13.75414 -1.74309,14.04348 -0.44434,0.39057 -8.41905,-11.26674 1.74309,-10.09922 0.26123,0.03 0,0.5259 0,0.78885 0,0.0876 -0.0876,0.26295 0,0.26295 0.47663,0 7.3253,48.58305 7.62556,48.38288 0.16307,-0.10872 -6.49674,-49.10975 -6.31081,-49.17173 0.1663,-0.0554 0.40194,0.12396 0.5259,0 0.062,-0.062 -0.0876,-0.26295 0,-0.26295 0.0876,0 0,0.1753 0,0.26295 0,0.26295 0,0.5259 0,0.78885 0,0.43825 0,0.8765 0,1.31475 0,0.0876 0.0392,0.18456 0,0.26295 -0.0554,0.11087 13.44967,47.18573 13.41047,47.06814 -0.0451,-0.13545 47.7191,0.14114 45.08012,-0.25486 -7.2287,-1.08471 -1.26221,-10.86487 -7.2037,-10.44279 -51.82495,3.68169 -51.13509,-38.64431 -51.02394,-38.99999 1.97363,-5.92088 -0.19392,0.69599 1.31475,-4.20721 0.24454,-0.79475 0.58718,-1.55986 0.78885,-2.36655 0.0213,-0.085 0,-0.3506 0,-0.26295 0,0.26295 0.0832,0.53939 0,0.78885 -0.31841,0.95526 -0.57307,0.59666 -1.0518,1.31475 -0.0486,0.0729 0.0486,0.19002 0,0.26295 -0.13751,0.20628 -0.46577,0.28539 -0.5259,0.5259 -0.14024,0.56096 0.57849,0.57849 0.78885,0.78885 0.062,0.062 -0.062,0.20098 0,0.26296 0.062,0.062 0.20098,-0.062 0.26295,0 0.062,0.062 -0.062,0.20097 0,0.26295 0.062,0.062 20.7339,-9.80757 20.77309,-9.72917 0.0784,0.15679 -20.51014,10.07977 -20.51014,10.25507 0,0.26295 0,0.5259 0,0.78885 0,0.41705 20.25076,8.48539 33.18365,5.4301 2.64267,-0.62431 10.22667,-5.81226 7.38447,-4.59069 -10.68951,4.59434 -16.67678,-3.71143 -17.95438,-4.25777"
       id="path3331-9-1"
       inkscape:connector-curvature="0"
       sodipodi:nodetypes="csscssssccsssssscscsssscssssccsssssccsscscscscssccccssssc" />
    <path
       style="fill:#ff2a2a;stroke:#ff2a2a;stroke-width:3;stroke-linecap:butt;stroke-linejoin:miter;stroke-miterlimit:4;stroke-opacity:1;stroke-dasharray:none"
       d="m 272.99377,585.26782 c -0.3506,-0.1753 -1.2271,-0.1753 -1.0518,-0.5259 0.1753,-0.3506 1.0518,0.91788 1.0518,0.5259 0,-0.63205 -0.7951,-1.00012 -1.0518,-1.5777 -0.1068,-0.24029 0,-0.5259 0,-0.78885 0,-0.3506 0,-0.7012 0,-1.0518 0,-0.0877 0,-0.35061 0,-0.26296 0,0.81791 0.11792,1.6048 -0.26295,2.36656 -0.0885,0.177 12.33905,-15.6391 12.27345,-15.31112 -0.0516,0.25785 14.64493,9.30306 -13.06231,17.41472 -0.0601,0.24051 -0.41503,0.30416 -0.5259,0.5259 -0.04,0.08 0,0.67043 0,0.78885 0,0.61356 0,1.22711 0,1.84066 0,0.8765 0,1.753 0,2.6295 0,0.0876 0,0.3506 0,0.26295 0,-0.1753 -42.08197,21.21907 -42.08197,21.04377 0,-0.43825 42.00997,-22.45213 42.08197,-22.88442 0.0456,-0.2734 0.1753,-0.5259 0.26295,-0.78885 0.1753,-0.5259 0.33646,-1.05673 0.52591,-1.5777 0.1613,-0.4436 0.25522,-0.92807 0.5259,-1.31476 0.35542,-0.50774 1.13666,-0.72111 1.31475,-1.31475 0.13563,-0.4521 -0.96415,-1.13945 -0.5259,-1.31475 0.43825,-0.1753 16.93837,-18.14083 16.93837,-17.66882 0,0.55435 -8.83921,24.51587 -16.93837,20.56127 7.9216,4.43119 -54.26229,26.5943 -54.59145,26.88364 -0.44434,0.39057 44.42931,-24.1069 54.59145,-22.93938 0.26123,0.03 0,0.5259 0,0.78885 0,0.0876 -0.0876,0.26295 0,0.26295 0.47663,0 -3.03945,23.30436 -2.73919,23.10419 0.16307,-0.10872 3.86801,-23.83106 4.05394,-23.89304 0.1663,-0.0554 0.40194,0.12396 0.5259,0 0.062,-0.062 -0.0876,-0.26295 0,-0.26295 0.0876,0 0,0.1753 0,0.26295 0,0.26295 0,0.5259 0,0.78885 0,0.43825 0,0.8765 0,1.31475 0,0.0876 0.0392,0.18456 0,0.26295 -0.0554,0.11087 12.39639,16.37835 12.35719,16.26076 -0.25602,-0.76807 -12.25049,-18.39026 -12.09424,-18.89026 1.97363,-5.92088 6.80608,5.69599 1.31475,-4.20721 -0.40324,-0.72721 0.58718,-1.55986 0.78885,-2.36655 0.0213,-0.085 0,-0.3506 0,-0.26295 0,0.26295 0.0832,0.53939 0,0.78885 -0.31841,0.95526 -0.57307,0.59666 -1.0518,1.31475 -0.0486,0.0729 0.0486,0.19002 0,0.26295 -0.13751,0.20628 -0.46577,0.28539 -0.5259,0.5259 -0.14024,0.56096 0.57849,0.57849 0.78885,0.78885 0.062,0.062 -0.062,0.20098 0,0.26296 0.062,0.062 0.20098,-0.062 0.26295,0 0.062,0.062 17.17161,-34.96706 18.73361,-18.90508 0.062,0.062 -4.49971,-14.13954 -3.96052,7.43886 0.0784,0.15679 -14.51014,12.07977 -14.51014,12.25507 0,0.26295 0,0.5259 0,0.78885 0,0.8765 16.61374,-6.29486 16.61374,-5.41836"
       id="path3331-7-2"
       inkscape:connector-curvature="0"
       sodipodi:nodetypes="csscssssccsssssscscsssscssssccssssscccscscscssccccssc" />
    <path
       style="fill:#ff2a2a;stroke:#ff2a2a;stroke-width:3;stroke-linecap:butt;stroke-linejoin:miter;stroke-miterlimit:4;stroke-opacity:1;stroke-dasharray:none"
       d="m 426.1618,601.01781 c -0.3506,-0.1753 -1.2271,-0.1753 -1.0518,-0.5259 0.1753,-0.3506 1.0518,0.91788 1.0518,0.5259 0,-0.63205 -0.7951,-1.00012 -1.0518,-1.5777 -0.1068,-0.24029 0,-0.5259 0,-0.78885 0,-0.3506 0,-0.7012 0,-1.0518 0,-0.0877 0,-0.35061 0,-0.26296 0,0.81791 0.11792,1.6048 -0.26295,2.36656 -0.0885,0.177 -8.61177,-23.20467 -8.67737,-22.87669 -0.0516,0.25785 7.95231,24.72519 7.88851,24.98029 -0.0601,0.24051 -0.41503,0.30416 -0.5259,0.5259 -0.04,0.08 0,0.67043 0,0.78885 0,0.61356 0,1.22711 0,1.84066 0,0.8765 0,1.753 0,2.6295 0,0.0876 0,0.3506 0,0.26295 0,-0.1753 0,-0.3506 0,-0.5259 0,-0.43825 -0.072,-0.88246 0,-1.31475 0.0456,-0.2734 0.1753,-0.5259 0.26295,-0.78885 0.1753,-0.5259 -13.33977,13.20147 -13.15032,12.6805 0.1613,-0.4436 -16.62183,-38.46496 14.20213,-15.57296 0.49757,0.36953 1.13666,-0.72111 1.31475,-1.31475 0.13563,-0.4521 -0.96415,-1.13945 -0.5259,-1.31475 0.43825,-0.1753 -2.95917,-20.50559 -2.95917,-20.03358 0,0.55435 16.44358,22.08965 16.34442,22.63505 -0.0784,0.43119 -32.84017,-27.85652 -33.16933,-27.56718 -0.44434,0.39057 9.62194,30.6349 19.78408,31.80242 0.26123,0.03 0,0.5259 0,0.78885 0,0.0876 -2.99744,47.98426 -2.90984,47.98426 0.47663,0 1.50563,-9.90465 10.5354,0.66157 0.16307,-0.10872 -6.49674,-49.10975 -6.31081,-49.17173 0.1663,-0.0554 0.40194,0.12396 0.5259,0 0.062,-0.062 -0.0876,-0.26295 0,-0.26295 0.0876,0 0,0.1753 0,0.26295 0,0.26295 0,0.5259 0,0.78885 0,0.43825 0,0.8765 0,1.31475 0,0.0876 0.0392,0.18456 0,0.26295 -0.0554,0.11087 11.99475,33.21852 11.95555,33.10093 -0.25602,-0.76807 0.37246,-34.93945 -11.6926,-35.73043 1.97363,-5.92088 -0.19392,0.69599 1.31475,-4.20721 0.24454,-0.79475 0.58718,-1.55986 0.78885,-2.36655 0.0213,-0.085 0,-0.3506 0,-0.26295 0,0.26295 0.0832,0.53939 0,0.78885 -0.31841,0.95526 -0.57307,0.59666 -1.0518,1.31475 -0.0486,0.0729 0.0486,0.19002 0,0.26295 -0.13751,0.20628 -0.46577,0.28539 -0.5259,0.5259 -0.14024,0.56096 0.57849,0.57849 0.78885,0.78885 0.062,0.062 -0.062,0.20098 0,0.26296 0.062,0.062 0.20098,-0.062 0.26295,0 0.062,0.062 -0.062,0.20097 0,0.26295 0.062,0.062 3.27488,-14.46331 3.31407,-14.38491 0.0784,0.15679 -3.05112,14.73551 -3.05112,14.91081 0,0.26295 0,0.5259 0,0.78885 0,0.8765 22.61374,-4.29486 22.61374,-3.41836"
       id="path3331-2-3"
       inkscape:connector-curvature="0"
       sodipodi:nodetypes="csscssssccsssssscscsssscssssccssssscccscscscssccccssc" />
    <path
       style="fill:#ff2a2a;stroke:#ff2a2a;stroke-width:3;stroke-linecap:butt;stroke-linejoin:miter;stroke-miterlimit:4;stroke-opacity:1;stroke-dasharray:none"
       d="m 311.37106,573.15047 c -0.3506,-0.1753 -1.2271,-0.1753 -1.0518,-0.5259 0.1753,-0.3506 1.0518,0.91788 1.0518,0.5259 0,-0.63205 -0.7951,-1.00012 -1.0518,-1.5777 -0.1068,-0.24029 0,-0.5259 0,-0.78885 0,-0.3506 0,-0.7012 0,-1.0518 0,-0.0877 0,-0.35061 0,-0.26296 0,0.81791 0.11792,1.6048 -0.26295,2.36656 -0.0885,0.177 -8.61177,-23.20467 -8.67737,-22.87669 -0.0516,0.25785 7.95231,24.72519 7.88851,24.98029 -0.0601,0.24051 -0.41503,0.30416 -0.5259,0.5259 -0.04,0.08 0,0.67043 0,0.78885 0,0.61356 0,1.22711 0,1.84066 0,0.8765 0,1.753 0,2.6295 0,0.0876 0,0.3506 0,0.26295 0,-0.1753 0,-0.3506 0,-0.5259 0,-0.43825 -0.072,-0.88246 0,-1.31475 0.0456,-0.2734 0.1753,-0.5259 0.26295,-0.78885 0.1753,-0.5259 0.33646,-1.05673 0.52591,-1.5777 0.1613,-0.4436 0.25522,-0.92807 0.5259,-1.31476 0.35542,-0.50774 1.13666,-0.72111 1.31475,-1.31475 0.13563,-0.4521 -0.96415,-1.13945 -0.5259,-1.31475 0.43825,-0.1753 -4.99606,-25.45231 -4.99606,-24.9803 0,0.55435 5.09522,27.32735 4.99606,27.87275 -0.0784,0.43119 -13.34426,-17.38111 -13.67342,-17.09177 -0.44434,0.39057 3.51128,19.86851 13.67342,21.03603 0.26123,0.03 0,0.5259 0,0.78885 0,0.0876 -0.0876,0.26295 0,0.26295 0.47663,0 7.3253,48.58305 7.62556,48.38288 0.16307,-0.10872 -6.49674,-49.10975 -6.31081,-49.17173 0.1663,-0.0554 0.40194,0.12396 0.5259,0 0.062,-0.062 -0.0876,-0.26295 0,-0.26295 0.0876,0 0,0.1753 0,0.26295 0,0.26295 0,0.5259 0,0.78885 0,0.43825 0,0.8765 0,1.31475 0,0.0876 0.0392,0.18456 0,0.26295 -0.0554,0.11087 13.44967,47.18573 13.41047,47.06814 -0.25602,-0.76807 -13.30377,-49.19764 -13.14752,-49.69764 1.97363,-5.92088 -0.19392,0.69599 1.31475,-4.20721 0.24454,-0.79475 0.58718,-1.55986 0.78885,-2.36655 0.0213,-0.085 0,-0.3506 0,-0.26295 0,0.26295 0.0832,0.53939 0,0.78885 -0.31841,0.95526 -0.57307,0.59666 -1.0518,1.31475 -0.0486,0.0729 0.0486,0.19002 0,0.26295 -0.13751,0.20628 -0.46577,0.28539 -0.5259,0.5259 -0.14024,0.56096 0.57849,0.57849 0.78885,0.78885 0.062,0.062 -0.062,0.20098 0,0.26296 0.062,0.062 0.20098,-0.062 0.26295,0 0.062,0.062 -0.062,0.20097 0,0.26295 0.062,0.062 20.7339,-9.80757 20.77309,-9.72917 0.0784,0.15679 -20.51014,10.07977 -20.51014,10.25507 0,0.26295 0,0.5259 0,0.78885 0,0.8765 22.61374,-4.29486 22.61374,-3.41836"
       id="path3331-3"
       inkscape:connector-curvature="0"
       sodipodi:nodetypes="csscssssccsssssscscsssscssssccssssscccscscscssccccssc" />
    <text
       xml:space="preserve"
       style="font-size:32px;font-style:normal;font-variant:normal;font-weight:normal;font-stretch:normal;text-align:start;line-height:125%;letter-spacing:0px;word-spacing:0px;writing-mode:lr-tb;text-anchor:start;fill:#ff2a2a;fill-opacity:1;stroke:none;font-family:Shermlock;-inkscape-font-specification:Shermlock"
       x="199.53448"
       y="696.0022"
       id="text2985-1-4-9-8-2-2-8-4"
       sodipodi:linespacing="125%"><tspan
         sodipodi:role="line"
         id="tspan3225-3-9-1"
         x="199.53448"
         y="696.0022">a Generic Terminal for the Web</tspan></text>
    <text
       xml:space="preserve"
       style="font-size:144px;font-style:normal;font-variant:normal;font-weight:normal;font-stretch:normal;text-align:start;line-height:125%;letter-spacing:0px;word-spacing:0px;writing-mode:lr-tb;text-anchor:start;fill:#ffffff;fill-opacity:1;stroke:none;font-family:EpoXY histoRy;-inkscape-font-specification:EpoXY histoRy"
       x="194.45441"
       y="643.34827"
       id="text2985-1-4-9-8-2-5-1-1-2-1"
       sodipodi:linespacing="125%"><tspan
         sodipodi:role="line"
         id="tspan3209-2-3"
         x="194.45441"
         y="643.34827">REPL</tspan></text>
    <text
       xml:space="preserve"
       style="font-size:70.54443359000001100px;font-style:normal;font-variant:normal;font-weight:normal;font-stretch:normal;text-align:start;line-height:125%;letter-spacing:0px;word-spacing:0px;writing-mode:lr-tb;text-anchor:start;fill:#ececec;fill-opacity:1;stroke:none;font-family:SketchFlow Print;-inkscape-font-specification:SketchFlow Print"
       x="73.993057"
       y="573.33124"
       id="text2985-1-4-9-6-8"
       sodipodi:linespacing="125%"
       transform="matrix(0.95063516,-0.1771499,0.16490923,1.0211976,0,0)"><tspan
         sodipodi:role="line"
         id="tspan3248-1-7"
         x="73.993057"
         y="573.33124">Web</tspan></text>
    <text
       xml:space="preserve"
       style="font-size:70.54443359000001100px;font-style:normal;font-variant:normal;font-weight:normal;font-stretch:normal;text-align:start;line-height:125%;letter-spacing:0px;word-spacing:0px;writing-mode:lr-tb;text-anchor:start;fill:#ff0000;fill-opacity:1;stroke:none;font-family:SketchFlow Print;-inkscape-font-specification:SketchFlow Print"
       x="72.197769"
       y="570.78241"
       id="text2985-1-4-9-4"
       sodipodi:linespacing="125%"
       transform="matrix(0.95063516,-0.1771499,0.16490923,1.0211976,0,0)"><tspan
         sodipodi:role="line"
         id="tspan3248-2"
         x="72.197769"
         y="570.78241">Web</tspan></text>
  </g>
</svg>
